<svg xmlns="http://www.w3.org/2000/svg" width="800" height="450" viewBox="0 0 800 450">
  <rect width="800" height="450" fill="#fef3c7"/>
  <rect x="40" y="40" width="720" height="370" rx="12" fill="white" stroke="#e2e8f0" stroke-width="1"/>
  <rect x="40" y="40" width="720" height="60" rx="12" fill="#92400e"/>
  <rect x="40" y="88" width="720" height="12" fill="#92400e"/>
  <text x="70" y="78" fill="white" font-family="Inter,sans-serif" font-size="18" font-weight="600">Craft Coffee Roasters</text>
  <rect x="80" y="140" width="210" height="230" rx="8" fill="#fef9c3"/>
  <rect x="310" y="140" width="210" height="230" rx="8" fill="#fef9c3"/>
  <rect x="540" y="140" width="180" height="230" rx="8" fill="#fef9c3"/>
  <circle cx="185" cy="220" r="45" fill="#fde68a"/>
  <circle cx="415" cy="220" r="45" fill="#fde68a"/>
  <circle cx="630" cy="220" r="45" fill="#fde68a"/>
  <rect x="120" y="290" width="120" height="14" rx="3" fill="#fde68a"/>
  <rect x="350" y="290" width="120" height="14" rx="3" fill="#fde68a"/>
  <rect x="580" y="290" width="100" height="14" rx="3" fill="#fde68a"/>
  <rect x="120" y="320" width="80" height="28" rx="4" fill="#92400e"/>
  <rect x="350" y="320" width="80" height="28" rx="4" fill="#92400e"/>
  <rect x="580" y="320" width="80" height="28" rx="4" fill="#92400e"/>
</svg>
