<svg xmlns="http://www.w3.org/2000/svg" width="800" height="450" viewBox="0 0 800 450">
  <rect width="800" height="450" fill="#f0f4ff"/>
  <rect x="40" y="40" width="720" height="370" rx="12" fill="white" stroke="#e2e8f0" stroke-width="1"/>
  <rect x="40" y="40" width="720" height="60" rx="12" fill="#2563eb" />
  <rect x="40" y="88" width="720" height="12" fill="#2563eb" />
  <text x="70" y="78" fill="white" font-family="Inter,sans-serif" font-size="18" font-weight="600">Bella Salon &amp; Spa</text>
  <rect x="80" y="140" width="280" height="180" rx="8" fill="#dbeafe"/>
  <rect x="400" y="140" width="320" height="30" rx="4" fill="#e2e8f0"/>
  <rect x="400" y="185" width="280" height="16" rx="3" fill="#e2e8f0"/>
  <rect x="400" y="212" width="250" height="16" rx="3" fill="#e2e8f0"/>
  <rect x="400" y="250" width="140" height="40" rx="6" fill="#2563eb"/>
  <text x="435" y="276" fill="white" font-family="Inter,sans-serif" font-size="14" font-weight="500">Book Now</text>
  <circle cx="220" cy="230" r="40" fill="#bfdbfe"/>
  <path d="M205 225 l10 -15 l10 15 l10 -10 l15 20 H195z" fill="#93c5fd"/>
</svg>
