<svg xmlns="http://www.w3.org/2000/svg" width="800" height="450" viewBox="0 0 800 450">
  <rect width="800" height="450" fill="#ecfdf5"/>
  <rect x="40" y="40" width="720" height="370" rx="12" fill="white" stroke="#e2e8f0" stroke-width="1"/>
  <rect x="40" y="40" width="720" height="200" rx="12" fill="#065f46"/>
  <rect x="40" y="228" width="720" height="12" fill="#065f46"/>
  <text x="400" y="130" fill="white" font-family="Inter,sans-serif" font-size="28" font-weight="700" text-anchor="middle">Greenleaf</text>
  <text x="400" y="160" fill="#a7f3d0" font-family="Inter,sans-serif" font-size="14" text-anchor="middle">Farm-to-Table Restaurant</text>
  <rect x="300" y="190" width="200" height="36" rx="6" fill="#10b981"/>
  <text x="400" y="213" fill="white" font-family="Inter,sans-serif" font-size="13" font-weight="500" text-anchor="middle">Reserve a Table</text>
  <rect x="80" y="270" width="200" height="110" rx="8" fill="#ecfdf5"/>
  <rect x="300" y="270" width="200" height="110" rx="8" fill="#ecfdf5"/>
  <rect x="520" y="270" width="200" height="110" rx="8" fill="#ecfdf5"/>
  <rect x="100" y="290" width="140" height="14" rx="3" fill="#d1fae5"/>
  <rect x="100" y="315" width="120" height="10" rx="2" fill="#d1fae5"/>
  <rect x="320" y="290" width="140" height="14" rx="3" fill="#d1fae5"/>
  <rect x="320" y="315" width="120" height="10" rx="2" fill="#d1fae5"/>
  <rect x="540" y="290" width="140" height="14" rx="3" fill="#d1fae5"/>
  <rect x="540" y="315" width="120" height="10" rx="2" fill="#d1fae5"/>
</svg>
